<svg width="109" height="97" viewBox="0 0 109 97" fill="none" xmlns="http://www.w3.org/2000/svg">
<path d="M17.4315 56.3956C17.6837 56.561 17.787 56.6147 17.9482 56.7139C23.3383 59.9008 28.3893 61.6989 28.3893 61.6989C28.3893 61.6989 20.0274 58.235 8.95382 46.3307C2.66684 39.5725 0.740652 31.6031 0.240504 26.0312C-0.044705 27.5565 -0.0323096 29.5199 0.0544929 31.0162C0.0668933 31.0989 0.0710217 31.1567 0.0751552 31.2477C0.335563 34.8768 1.29867 40.2958 4.61783 44.8302C7.80886 48.9967 11.7935 52.8781 17.4315 56.3956Z" fill="white"/>
<path d="M21.3129 49.7072C21.7759 50.0957 22.2388 50.4677 22.6935 50.8232C22.7307 50.848 22.7638 50.8687 22.7969 50.8935C22.7845 50.8893 22.7762 50.8852 22.7638 50.8811C24.7933 52.4642 26.674 53.729 27.8231 54.4606C25.31 52.708 18.9114 47.2643 11.124 33.2229C6.01503 24.0095 4.41952 13.4857 4.08471 5.34277C1.32356 18.9708 5.31647 35.3227 21.3129 49.7072Z" fill="white"/>
<path d="M108.847 80.7441C94.0741 84.1253 78.2637 82.629 78.2637 82.629C78.2637 82.629 75.8539 84.6255 66.8223 90.28C58.8571 95.265 50.801 93.996 48.5813 93.5083C47.7505 94.0497 47.0106 94.5251 46.4402 94.8847C45.9607 95.1906 45.6424 95.5957 46.4154 95.7403C49.7965 96.381 60.5683 98.4147 72.0015 89.5691C77.6395 85.2 79.1854 84.6048 79.1854 84.6048C91.0484 84.9107 104.085 82.7737 108.847 80.7441Z" fill="white"/>
<path d="M56.7241 80.7147C57.373 80.7354 58.0137 80.7519 58.6379 80.7436C61.9116 80.7064 64.5983 80.5576 64.5983 80.5576C64.5983 80.5576 46.1796 79.669 29.4226 71.0672C17.1462 64.7679 9.44147 57.245 5.07654 51.7227C17.7125 75.4322 46.2954 79.764 56.7406 80.7147H56.7241Z" fill="white"/>
<path d="M55.4138 88.9263C55.4138 88.9263 50.7967 90.3027 45.4728 90.621C40.1489 90.9393 38.355 88.36 37.9045 87.7979C37.6275 87.4506 43.6086 84.8631 48.4406 82.9121L35.3955 86.3718C35.3955 86.3718 34.8044 86.6322 34.8829 87.1861C34.9532 87.6904 35.3335 88.5874 35.6559 89.2487C36.7099 91.4642 40.988 95.9284 53.2355 90.0878L55.4138 88.9263Z" fill="white"/>
<path d="M80.3221 65.4553C101.911 65.4553 106.09 62.3138 109 61.1813C94.4544 65.2197 75.581 63.2025 66.289 59.8214C34.8665 48.1361 13.8396 17.9908 5.82483 0.605469C6.11004 2.10591 6.65153 3.61049 7.12274 5.07787C19.6058 35.0124 47.5149 65.3437 80.3221 65.4553Z" fill="white"/>
</svg>
