<svg width="114" height="98" viewBox="0 0 114 98" fill="none" xmlns="http://www.w3.org/2000/svg">
<path d="M65.9202 75.9488H6.42828C4.38547 75.9488 2.7041 74.2714 2.7041 72.2236V6.72518C2.7041 4.67674 4.38547 3 6.42828 3H91.4871C93.5319 3 95.2132 4.67674 95.2132 6.72518V50.9187" stroke="white" stroke-width="5" stroke-miterlimit="10"/>
<path d="M95.2132 11.8418L48.9576 36.986L2.7041 11.8418" stroke="white" stroke-width="5" stroke-miterlimit="10"/>
<path d="M110.536 72.2246C110.536 84.6293 100.482 94.6879 88.0771 94.6879C75.6686 94.6879 65.6123 84.6293 65.6123 72.2246C65.6123 59.8126 75.6686 49.7578 88.0771 49.7578C100.482 49.7578 110.536 59.8126 110.536 72.2246Z" stroke="white" stroke-width="5" stroke-miterlimit="10"/>
<path d="M80.123 72.2285H96.0201" stroke="white" stroke-width="5" stroke-miterlimit="10"/>
</svg>
