<svg width="181" height="203" viewBox="0 0 181 203" fill="none" xmlns="http://www.w3.org/2000/svg">
<path d="M148.652 137.782C164.861 137.782 178 132.916 178 126.913C178 120.909 164.861 116.043 148.652 116.043C132.444 116.043 119.304 120.909 119.304 126.913C119.304 132.916 132.444 137.782 148.652 137.782Z" stroke="white" stroke-width="6" stroke-miterlimit="10" stroke-linecap="round" stroke-linejoin="round"/>
<path d="M157.348 151.912C169.315 150.445 178 146.379 178 141.512V126.912" stroke="white" stroke-width="6" stroke-miterlimit="10" stroke-linecap="round" stroke-linejoin="round"/>
<path d="M119.304 126.912V136.695" stroke="white" stroke-width="6" stroke-miterlimit="10" stroke-linecap="round" stroke-linejoin="round"/>
<path d="M157.348 167.131C169.315 165.664 178 161.598 178 156.731V142.131" stroke="white" stroke-width="6" stroke-miterlimit="10" stroke-linecap="round" stroke-linejoin="round"/>
<path d="M157.348 181.262C169.315 179.795 178 175.728 178 170.862V156.262" stroke="white" stroke-width="6" stroke-miterlimit="10" stroke-linecap="round" stroke-linejoin="round"/>
<path d="M114.957 171.477C131.165 171.477 144.304 166.611 144.304 160.608C144.304 154.605 131.165 149.738 114.957 149.738C98.7482 149.738 85.6086 154.605 85.6086 160.608C85.6086 166.611 98.7482 171.477 114.957 171.477Z" stroke="white" stroke-width="6" stroke-miterlimit="10" stroke-linecap="round" stroke-linejoin="round"/>
<path d="M85.6086 160.609V174.904C85.6086 180.844 98.7415 185.609 114.956 185.609C131.171 185.609 144.304 180.779 144.304 174.904V160.609" stroke="white" stroke-width="6" stroke-miterlimit="10" stroke-linecap="round" stroke-linejoin="round"/>
<path d="M85.6086 174.738V189.033C85.6086 194.973 98.7415 199.738 114.956 199.738C131.171 199.738 144.304 194.908 144.304 189.033V174.738" stroke="white" stroke-width="6" stroke-miterlimit="10" stroke-linecap="round" stroke-linejoin="round"/>
<path d="M117.13 30.8023V20.8492C117.13 11.0288 109.107 3 99.1449 3H20.9854C11.0901 3 3 10.9625 3 20.8492V181.89C3 191.71 11.0232 199.739 20.9854 199.739H72.8688" stroke="white" stroke-width="6" stroke-miterlimit="10" stroke-linecap="round" stroke-linejoin="round"/>
<path d="M64.9566 182.348H56.261" stroke="white" stroke-width="6" stroke-miterlimit="10" stroke-linecap="round" stroke-linejoin="round"/>
<path d="M70.3912 20.3906H49.739" stroke="white" stroke-width="6" stroke-miterlimit="10" stroke-linecap="round" stroke-linejoin="round"/>
<path d="M85.6086 139.956V45.3906H155.174V102.077" stroke="white" stroke-width="6" stroke-miterlimit="10" stroke-linecap="round" stroke-linejoin="round"/>
<path d="M138.869 105.24C134.933 99.317 128.241 95.3906 120.631 95.3906C108.493 95.3906 98.6521 105.373 98.6521 117.684C98.6521 124.406 101.604 130.462 106.263 134.521" stroke="white" stroke-width="6" stroke-miterlimit="10" stroke-linecap="round" stroke-linejoin="round"/>
<path d="M143.217 89.9564V69.2362C136.765 69.2362 131.577 63.9373 131.577 57.3477H110.292C110.292 63.9373 105.104 69.2362 98.6521 69.2362V89.9564" stroke="white" stroke-width="6" stroke-miterlimit="10" stroke-linecap="round" stroke-linejoin="round"/>
</svg>
