<svg width="213" height="204" viewBox="0 0 213 204" fill="none" xmlns="http://www.w3.org/2000/svg">
<path d="M154.719 65.6923C148.196 30.0206 116.986 3 79.4781 3C37.2464 3 3 37.3235 3 79.6239C3 96.7014 8.62342 112.431 18.0707 125.183C11.8287 144.732 3 160.293 3 160.293C3 160.293 30.2734 160.293 48.4932 149.675C57.9968 153.888 68.4562 156.304 79.4781 156.304C88.9816 156.304 98.0915 154.563 106.47 151.417" stroke="white" stroke-width="6" stroke-miterlimit="10" stroke-linecap="round" stroke-linejoin="round"/>
<path d="M160.456 79.3984V88.3866" stroke="white" stroke-width="6" stroke-miterlimit="10" stroke-linecap="round"/>
<path d="M209.941 182.76V173.772C199.144 165.851 196.445 155.796 196.445 142.314V124.337C196.445 104.507 180.306 88.3848 160.456 88.3848C140.605 88.3848 124.466 104.507 124.466 124.337V137.82C124.466 151.302 121.767 165.851 110.97 173.772V182.76H209.941Z" stroke="white" stroke-width="6" stroke-miterlimit="10" stroke-linejoin="round"/>
<path d="M173.951 191.752C173.951 196.695 167.934 200.74 160.455 200.74C152.976 200.74 146.959 196.695 146.959 191.752" stroke="white" stroke-width="6" stroke-miterlimit="10" stroke-linejoin="round"/>
<path d="M79.4797 43.4453V92.8801" stroke="white" stroke-width="6" stroke-miterlimit="10" stroke-linejoin="round"/>
<path d="M79.4797 101.871V115.353" stroke="white" stroke-width="6" stroke-miterlimit="10" stroke-linejoin="round"/>
</svg>
